<svg width="172" height="172" viewBox="0 0 172 172" fill="none" xmlns="http://www.w3.org/2000/svg">
<circle cx="86" cy="86" r="86" fill="#DEE7FF"/>
<path d="M73.7603 58.8158C74.9126 57.743 76.6489 57.743 77.8012 58.8158L105.172 84.2973C106.427 85.466 106.54 87.4792 105.424 88.794C104.308 90.1088 102.386 90.2272 101.131 89.0585L100.11 88.1083V112.159C100.11 115.678 97.3869 118.53 94.0277 118.53H57.5338C54.1746 118.53 51.4515 115.678 51.4515 112.159V88.1083L50.4308 89.0585C49.1754 90.2272 47.2532 90.1088 46.1373 88.794C45.0215 87.4792 45.1346 85.466 46.3899 84.2973L73.7603 58.8158ZM57.5338 82.4457V112.159H66.6573V96.2335C66.6573 94.4743 68.0189 93.0483 69.6984 93.0483H81.8631C83.5427 93.0483 84.9042 94.4743 84.9042 96.2335V112.159H94.0277V82.4457L75.7808 65.4581L57.5338 82.4457ZM78.8219 112.159V99.4186H72.7396V112.159H78.8219Z" fill="#172F6E"/>
<path d="M144.37 73.1401L108.129 42.3547C107.945 42.1984 107.676 42.1958 107.489 42.3485L69.805 73.1398C69.6888 73.2347 69.6213 73.3769 69.6213 73.527V120.418C69.6213 120.694 69.8452 120.918 70.1213 120.918H144.047C144.323 120.918 144.547 120.694 144.547 120.418V73.5211C144.547 73.3744 144.482 73.2351 144.37 73.1401Z" fill="#B1B9C0"/>
<path d="M118.259 96.9785H103.833C103.557 96.9785 103.333 97.2024 103.333 97.4785V120.367C103.333 120.644 103.557 120.867 103.833 120.867H118.259C118.535 120.867 118.759 120.644 118.759 120.367V97.4785C118.759 97.2024 118.535 96.9785 118.259 96.9785Z" fill="#172F6E" fill-opacity="0.5"/>
<path d="M70.7618 78.6807H27.8756C27.5995 78.6807 27.3756 78.9045 27.3756 79.1807V119.428C27.3756 119.7 27.5936 119.923 27.866 119.928L70.7521 120.756C71.032 120.761 71.2618 120.536 71.2618 120.256V79.1807C71.2618 78.9045 71.0379 78.6807 70.7618 78.6807Z" fill="#D7DFE7"/>
<path d="M111.053 42.085H63.6556C63.5775 42.085 63.5025 42.1154 63.4465 42.1698L24.53 79.9954C24.3368 80.1831 24.4697 80.5105 24.7391 80.5105H73.5643C73.6443 80.5105 73.721 80.4785 73.7773 80.4217L111.266 42.5961C111.453 42.4068 111.319 42.085 111.053 42.085Z" fill="#172F6E" stroke="#172F6E" stroke-linejoin="round"/>
<line x1="1.5" y1="-1.5" x2="51.8135" y2="-1.5" transform="matrix(0.752939 0.65809 -0.623154 0.782099 107.858 43.9146)" stroke="#172F6E" stroke-width="3" stroke-linecap="round"/>
<ellipse cx="110.6" cy="74.2332" rx="7.98304" ry="8.36111" fill="#647497"/>
<path d="M42.8946 98.2564L33.052 120.162C32.9033 120.493 33.1453 120.867 33.508 120.867H68.1695C68.5921 120.867 68.8241 120.376 68.5554 120.05L58.9263 108.36C58.7124 108.1 58.3081 108.122 58.1229 108.403L50.52 119.94C50.2828 120.3 49.7319 120.211 49.6197 119.795L43.8334 98.3312C43.7111 97.8775 43.0871 97.8278 42.8946 98.2564Z" fill="#85CA83"/>
</svg>
